<svg viewBox="0 0 165 69" xmlns="http://www.w3.org/2000/svg"><g fill="#ED1F24" fill-rule="evenodd"><path d="M142.267 11.65a104.896 104.896 0 0 0 1.43-9.06c.282-2.414.955-2.862 4.197-2.428 3.243.434 3.625 1.145 2.733 3.858a54.693 54.693 0 0 1-3.61 8.183c-1.998 3.338-4.13 5.27-6.252 4.43 0 0 .73-1.273 1.488-4.959"/><path d="M75.99 26.705c5.528-1.044 9.505-2.646 15.833-2.384-.477-5.594-6.676-4.874-13.467-3.949.353-.93.606-1.602.71-1.907.516-1.522.182-3.019-1.34-4.416a16.343 16.343 0 0 0-5.05-2.828s-1.979 4.588-3.953 10.014a44.622 44.622 0 0 1-8.236-.543c-1.087 5.298-.324 6.938 6.09 6.91a73.393 73.393 0 0 0-.863 3.07c-1.374 5.18-2.537 9.119-6.114 10.177-.505-4.768-3.09-7.248-5.479-6.948a4.683 4.683 0 0 0-1.569-1.95c-3.171-2.013-9.595-3.52-13.777 6.724-3.252 7.968-2.475 16.6 1.054 20.153 3.042 3.057 7.463 4.192 10.916 2.756 3.109-1.302 6.819-6.485 8.502-14.826.164-.796.285-1.6.363-2.408a8.064 8.064 0 0 0 4.087-2.056c-.477 6.767.696 11.922 4.02 14.97 4.292 3.91 9.108 2.546 10.186-.296a4.392 4.392 0 0 1-3.891-.525c-4.106-2.975-2.833-12.875-.787-21.13.548-2.222 1.702-5.613 2.77-8.584l-.004-.024zM53.497 47.211c-2.18 8.584-5.455 11.779-7.391 10.968-1.937-.81-2.351-6.2-.859-12.108 1.636-6.476 3.696-9.018 5.437-10.014-1.202 2.065.41 5.722 3.524 7.453a29.853 29.853 0 0 1-.71 3.701zm109.786-18.179c-1.907-5.04-4.01-7.964-5.722-11.478 2.723-3.443 1.769-6.915-.143-8.107-1.35-.858-4.535-.787-6.424 2.136-2.174 3.367-1.516 6.49-.42 9.285-1.278 3.176-3.571 6.605-7.51 6.52-.22-4.293-1.808-6.443-3.944-7.383a11.116 11.116 0 0 0-1.707-.477 13.891 13.891 0 0 0-3.057-2.007c-3.563-1.603-9.686-.625-13.229 9.184-3.557 9.881-1.383 16.033 2.141 19.214 2.971 2.684 7.673 3.905 11.169 1.874 4.01-2.332 7.697-9.214 8.484-16.362 4.13.062 7.506-1.97 9.613-5.951.52 1.096 2.227 4.74 3.42 7.377 2.003 4.435 1.502 10.067-1.774 10.825-3.277.758-5.222-4.683-4.292-10.148-6.314.296-6.643 4.488-6.014 6.862 1.336 5.041 8.694 9.2 14.45 6.5 5.756-2.699 8.402-8.612 4.945-17.864h.014zm-26.757 3.257c-2.227 9.567-5.761 13.105-7.559 12.27-1.602-.739-2.585-4.601-1.316-10.219 1.77-7.82 4.607-10.997 6.853-12.098-1.202 1.907-.134 5.207 2.532 7.277a27.516 27.516 0 0 1-.496 2.77h-.014z" fill-rule="nonzero"/><path d="M115.405 40.377c1.049-6.81 4.516-16.605 4.187-19.29-.315-2.555-3.93-5.46-6.677-3.633-2.303 1.521-5.078 5.393-6.275 7.23a65.332 65.332 0 0 0-3.944 7.052c.195-.53 1.03-3.882 1.43-6.104.477-2.413.206-3.767-1.592-5.069a12.613 12.613 0 0 0-4.388-1.984s-.581 4.821-3.314 14.206c-2.542 8.584-4.816 14.307-8.922 17.893-.868.758-1.593.181-1.646-.568-.095-1.359.353-3.915 1.345-7.792 1.43-5.636 2.976-10.53 4.34-14.282-5.556-.096-7.988 1.149-9.109 3.59a36.324 36.324 0 0 0-1.907 6.114c-1.474 6.2-3.2 14.75 1.907 16.786 2.828 1.111 4.65.124 5.365-.376.577-.41 3.381-1.989 6.271-7.816a6.028 6.028 0 0 0 2.017 3.59 6.242 6.242 0 0 0 3.5 1.431s3.12-9.576 6.52-16.214a90.702 90.702 0 0 1 7.2-11.845s-2.942 9.537-3.638 14.501c-1.054 7.497-.167 12.962 4.459 15.075 2.66 1.21 4.497-.225 4.497-.225s-3.229-1.907-1.631-12.274" fill-rule="nonzero"/><path d="M93.907 11.13c.868-1.712 2.437-4.716.954-5.403-1.588-.734-4.593-.987-5.637-.429-1.044.558-1.278 1.43-1.774 4.001a253.767 253.767 0 0 1-1.588 7.497c3.548.2 5.46-.573 8.054-5.666"/><path d="M45.098 13.648c-10.18-1.116-24.163.043-35.894 2.423.296-.691.632-1.365 1.006-2.017C4.588 15.122.215 17.039.477 21.512c.329 5.193 1.674 7.1 6.586 5.76a152.191 152.191 0 0 1 21.993-4.434c-.954 2.618-2.046 5.827-2.823 8.584-3.634 12.79-5.494 24.373-5.489 26.41.005 2.035-.343 4.768 3.639 7.958a25.542 25.542 0 0 0 5.455 3.214s-.386-1.936-.052-6.461c.3-4.04 2.742-21.98 6.4-35.256.42-1.521.953-3.338 1.592-5.332 5.976-.429 12.4-.147 17.945 2.337 1.43-6.929-3.724-9.885-10.625-10.644m117.036-1.302l-.467.072.205 1.411-.32.048-.205-1.411-.462.066-.043-.29 1.249-.182.043.286m1.803-.558l.252 1.703-.314.048-.177-1.407-.157 1.454-.291.043-.572-1.345.233 1.393-.31.048-.248-1.708.463-.066.52 1.216.138-1.312.463-.067" fill-rule="nonzero"/></g></svg>